<svg xmlns="http://www.w3.org/2000/svg" xmlns:xlink="http://www.w3.org/1999/xlink" viewBox="0 0 455.71 354.96" xmlns:v="https://vecta.io/nano"><style><![CDATA[.B{isolation:isolate}.H,.I,.N,.D,.F,.G{mix-blend-mode:lighten}]]></style><defs><linearGradient id="A" x1="-4445.53" y1="-1360.09" x2="-4445.53" y2="-1595.02" gradientTransform="matrix(-0.87, 0.5, 1, 0.58, -2124.95, 3390.9)" xlink:href="#Y"><stop offset="0" stop-color="#42e8e0"/><stop offset=".02" stop-color="#40deda"/><stop offset=".11" stop-color="#37adbc"/><stop offset=".22" stop-color="#2e82a2"/><stop offset=".32" stop-color="#285e8c"/><stop offset=".43" stop-color="#22417a"/><stop offset=".55" stop-color="#1e2a6c"/><stop offset=".67" stop-color="#1a1a63"/><stop offset=".81" stop-color="#19105d"/><stop offset="1" stop-color="#180d5b"/></linearGradient><linearGradient id="B" x1="-4459.8" y1="-1372.45" x2="-4459.8" y2="-1607.38" xlink:href="#A"/><linearGradient id="C" x1="-4474.08" y1="-1384.81" x2="-4474.08" y2="-1619.75" xlink:href="#A"/><radialGradient id="D" cx="-2190.47" cy="-516.42" r="93.46" gradientTransform="matrix(-0.87, 0.5, 0.87, 0.5, -1335.26, 1419.53)" xlink:href="#Y"><stop offset="0" stop-color="#42e8e0"/><stop offset=".15" stop-color="#33aeb9"/><stop offset=".31" stop-color="#267a95"/><stop offset=".47" stop-color="#1b5078"/><stop offset=".62" stop-color="#132e61"/><stop offset=".76" stop-color="#0d1651"/><stop offset=".89" stop-color="#090847"/><stop offset="1" stop-color="#080344"/></radialGradient><radialGradient id="E" cx="-2148.62" cy="-169.81" r="63.13" xlink:href="#D"/><linearGradient id="F" x1="183.46" y1="223.62" x2="349.5" y2="223.62" xlink:href="#Y"><stop offset="0" stop-color="#c0bff6"/><stop offset=".29" stop-color="#c5c4f7"/><stop offset=".64" stop-color="#d3d2f9"/><stop offset="1" stop-color="#e9e9fd"/></linearGradient><linearGradient id="G" x1="183.46" y1="266.21" x2="211.97" y2="266.21" xlink:href="#Y"><stop offset="0" stop-color="#5761d7"/><stop offset=".18" stop-color="#5c66d9"/><stop offset=".39" stop-color="#6a73df"/><stop offset=".61" stop-color="#8289e8"/><stop offset=".85" stop-color="#a3a7f5"/><stop offset="1" stop-color="#bcbeff"/></linearGradient><linearGradient id="H" x1="205.71" y1="314.07" x2="440.21" y2="314.07" xlink:href="#G"/><linearGradient id="I" x1="284.5" y1="306.25" x2="519.13" y2="306.25" xlink:href="#F"/><linearGradient id="J" x1="324.24" y1="319.57" x2="384.3" y2="319.57" xlink:href="#F"/><clipPath  transform="translate(-57.49 -117.47)"><path d="M329.47 133.68l-138.55 80 17.18 101.3 138.46-79.94-17.1-101.34z" fill="none"/></clipPath><linearGradient id="L" x1="468.34" y1="195.38" x2="527.19" y2="195.38" xlink:href="#Y"><stop offset="0" stop-color="#3199c9"/><stop offset="1" stop-color="#14288f"/></linearGradient><linearGradient id="M" x1="466.57" y1="153.8" x2="528.96" y2="153.8" xlink:href="#Y"><stop offset="0" stop-color="#443991"/><stop offset=".25" stop-color="#39b2c1"/><stop offset="1" stop-color="#24126a"/></linearGradient><linearGradient id="N" x1="4.65" y1="17.73" x2="55.33" y2="17.73" xlink:href="#L"/><linearGradient id="O" x1="472.42" y1="143.94" x2="536.33" y2="143.94" xlink:href="#Y"><stop offset="0" stop-color="#24126a"/><stop offset=".17" stop-color="#24146b"/><stop offset=".26" stop-color="#251c70"/><stop offset=".33" stop-color="#272a77"/><stop offset=".38" stop-color="#2a3d81"/><stop offset=".44" stop-color="#2d558f"/><stop offset=".49" stop-color="#3274a0"/><stop offset=".53" stop-color="#3798b4"/><stop offset=".57" stop-color="#3dc1ca"/><stop offset=".61" stop-color="#42e8e0"/><stop offset=".64" stop-color="#43d1d5"/><stop offset=".7" stop-color="#44a4c1"/><stop offset=".76" stop-color="#457eaf"/><stop offset=".82" stop-color="#4661a2"/><stop offset=".88" stop-color="#474d99"/><stop offset=".94" stop-color="#474093"/><stop offset="1" stop-color="#473c91"/></linearGradient><linearGradient id="P" x1="467.06" y1="150.63" x2="528.47" y2="150.63" xlink:href="#L"/><path id="Q" d="M114.24 114.32l-25.98-15 25.98-15 25.98 15-25.98 15z"/><path id="R" d="M114.24 83.92a.68.68 0 0 1-.36-.1l-26-15a.74.74 0 0 1 0-1.28l26-15a.75.75 0 0 1 .74 0l26 15a.74.74 0 0 1 0 1.28l-26 15a.69.69 0 0 1-.38.1zm-24.5-15.74l24.5 14.15 24.5-14.15-24.5-14.15z"/><path id="S" d="M320.94 155.18l-113.4 65.48-4.57-2.64 113.4-65.48 4.57 2.64z"/><path id="T" d="M189.35 85.34l-8.66 5-.33-1.95 8.66-5 .33 1.95z"/><path id="U" d="M184.35 93.1l-9.04 5.23-.33-1.95 9.04-5.22.33 1.94z"/><path id="V" d="M205.1 81.1l-4.42 2.56-.33-1.95 4.42-2.55.33 1.94z"/><path id="W" d="M195.52 113.77l2.74-1.6.33 1.95-2.74 1.58-.33-1.94z"/><path id="X" d="M378.4 268.2l-13.63-7.87 13.63-7.87 13.63 7.87-13.63 7.87z"/><linearGradient id="Y" gradientUnits="userSpaceOnUse"/></defs><g class="B"><g><g><g opacity=".2"><path class="D" d="M60 287.5l139.83-80.73L430.15 339.9a3 3 0 0 1 0 5.19L300.36 420a11.07 11.07 0 0 1-11.1 0z" transform="translate(-57.49 -117.47)" opacity=".6" fill="url(#A)"/></g><g opacity=".5"><path class="F" d="M60 273.22l139.83-80.73L430.15 325.6a3 3 0 0 1 0 5.2l-129.8 74.93a11.11 11.11 0 0 1-11.1 0z" transform="translate(-57.49 -117.47)" opacity=".6" fill="url(#B)"/></g><path class="G" d="M60 259l139.83-80.73 230.32 133.07a3 3 0 0 1 0 5.19l-129.8 74.93a11.07 11.07 0 0 1-11.1 0z" transform="translate(-57.49 -117.47)" opacity=".6" fill="url(#C)"/><ellipse class="H" cx="114.47" cy="66.09" rx="114.47" ry="66.09" opacity=".3" fill="url(#D)"/><ellipse class="I" cx="378.39" cy="260.32" rx="77.32" ry="44.64" opacity=".3" fill="url(#E)"/></g><g fill="#42e8e0"><use xlink:href="#Q" opacity=".3"/><use xlink:href="#Q" y="-17.28" opacity=".5"/><use xlink:href="#Q" y="-31.12" opacity=".7"/><use xlink:href="#R"/></g><g><g class="N"><path d="M237.45 276.06a12.9 12.9 0 0 1-6.48-1.74l-74.73-43.14a3.74 3.74 0 0 1 0-6.48l135.2-78.06a.73.73 0 0 1 .73 0l80.85 46.67a3.74 3.74 0 0 1 0 6.48l-129.1 74.53a12.9 12.9 0 0 1-6.48 1.74zm54.37-127.93l-134.84 77.85a2.26 2.26 0 0 0 0 3.92l74.73 43.15a11.75 11.75 0 0 0 11.49 0l129.1-74.52a2.27 2.27 0 0 0 0-3.93z" fill="#42e8e0"/></g></g><g><g transform="translate(-57.49 -117.47)"><path d="M349.47 234l-18-106.7 1.44-.6-2.17-1.24a1.57 1.57 0 0 0-1.68.11l-143.73 83a4.06 4.06 0 0 0-1.87 3.65l18.13 107.55a1.32 1.32 0 0 0 .76 1.09h0l2.15 1.15.37-2h-.13l142.87-82.4a4 4 0 0 0 1.86-3.6z" fill="url(#F)"/><path d="M186.16 211.43l-2.36-1.05a3.23 3.23 0 0 0-.31 1.78l18.13 107.55a1.32 1.32 0 0 0 .76 1.09h0l2.12 1.2.37-2h-.13l7.23-4.17z" fill="url(#G)"/></g><path d="M291.98 116.53l-18-106.7 1.1-.46c-.38-.68-1.16-.83-2.06-.3l-143.73 83a4.08 4.08 0 0 0-1.87 3.65l18.13 107.55a1.77 1.77 0 0 0 .27.7l.85.48a1.47 1.47 0 0 0 .36 0l.33-1.78h-.13l142.9-82.53a4 4 0 0 0 1.86-3.6z" fill="#42e8e0"/><path d="M292.37 121.42l-143.73 83c-1.1.64-2.06.27-2.26-.88L128.26 95.98a4 4 0 0 1 1.86-3.65l143.74-83c1.1-.64 2.06-.27 2.25.88l18.13 107.54a4 4 0 0 1-1.87 3.67z" fill="#24126a"/><g opacity=".5"><path d="M271.97 16.22l-138.54 80L150.6 197.5l138.45-79.93-17.1-101.34z" fill="#453c9e"/></g><g transform="translate(-57.49 -117.47)"><path d="M440.2 289.8l-7.84 4.1-78.66-45.4a5.69 5.69 0 0 0-5.13.21L212.92 327l-7.2-3.57 2.87 7.48a1.72 1.72 0 0 0 .8.89l82.84 47.83a5.74 5.74 0 0 0 5.14-.21l138.8-80.15a2.49 2.49 0 0 0 1.17-1.24h0z" fill="url(#H)"/><path d="M439 291.1l-142.27 82.14a5.84 5.84 0 0 1-5.26.22l-84.9-49c-1.35-.78-1.18-2.14.38-3l142.27-82.14a5.84 5.84 0 0 1 5.26-.22l84.9 49c1.35.74 1.18 2.1-.38 3z" fill="url(#I)"/></g><path d="M381.5 172.8l-142.27 82.14a5.84 5.84 0 0 1-5.26.22l-84.9-49a1.74 1.74 0 0 1-.83-.91 1.44 1.44 0 0 0 .83 1.73l84.9 49a5.84 5.84 0 0 0 5.26-.22l142.27-82.14c1.05-.6 1.45-1.4 1.2-2.12a2.52 2.52 0 0 1-1.2 1.3z" fill="#fff"/><g fill="#2842a2"><path d="M196.33 238v-1.56c0-.15.1-.2.2-.15l5.5 3.18a.47.47 0 0 1 .2.38v1.56c0 .15-.1.22-.2.15l-5.5-3.17a.5.5 0 0 1-.2-.39zm8.17 4.75v-1.56c0-.14.1-.2.2-.15l5.5 3.18a.48.48 0 0 1 .2.38v1.56c0 .15-.1.22-.2.16l-5.5-3.18a.48.48 0 0 1-.21-.39z"/></g><path d="M171.2 202.38l118.23-68.26a2.58 2.58 0 0 1 2.55 0l42.1 24.4a.91.91 0 0 1 0 1.57L215.9 228.28a2.51 2.51 0 0 1-2.54 0l-42.16-24.33a.91.91 0 0 1 0-1.57z" fill="#adb1f2"/><path d="M171.2 203.95l.43.25 117.8-68a2.55 2.55 0 0 1 2.55 0l41.67 24.1.43-.25a.91.91 0 0 0 0-1.57L292 134.13a2.58 2.58 0 0 0-2.55 0L171.2 202.38a.91.91 0 0 0 0 1.57z" fill="#9198db"/><g fill="#24126a"><path d="M295.16 140.3l-102.7 59.3-4.56-2.64 102.7-59.3 4.56 2.64zm11.2 6.46l-96.33 55.62-4.57-2.64 96.33-55.6 4.57 2.63zm7.3 4.2l-113.42 65.48-4.56-2.64 113.4-65.47 4.57 2.63z"/><use xlink:href="#S"/><use xlink:href="#S" x="7.29" y="4.22"/><path d="M186.26 203.17l-4.57 2.64-4.56-2.64 4.56-2.63 4.57 2.63zm16.1 3.63l-9.48 5.47-4.57-2.63 9.48-5.48 4.57 2.64z"/></g><path d="M351.48 336.37L383.36 318a1.38 1.38 0 0 0 0-2.61l-21.8-12.6a5 5 0 0 0-4.51 0l-31.88 18.4c-1.25.72-1.25 1.9 0 2.6L347 336.37a5 5 0 0 0 4.48 0z" transform="translate(-57.49 -117.47)" fill="url(#J)"/><path d="M267.68 204.78l31.88-18.4a5 5 0 0 1 4.51 0l21.8 12.6a1.92 1.92 0 0 1 .78.77c.33-.63.08-1.34-.78-1.84l-21.8-12.6a5 5 0 0 0-4.51 0l-31.88 18.4c-.86.5-1.1 1.2-.78 1.84a1.86 1.86 0 0 1 .78-.77z" fill="#9198db"/><g fill="#42e8e0"><path d="M190.12 80l-16.3 9.43-.33-1.95 16.3-9.43.33 1.95zm5.75-3.3l-4.04 2.33-.33-1.95 4.04-2.33.33 1.95zm-16.9 14.63l-4.42 2.55-.33-1.94 4.42-2.56.33 1.95z"/><use xlink:href="#T"/><path d="M193.8 82.76l-2.74 1.6-.33-1.95 2.74-1.6.33 1.95z"/><use xlink:href="#T" x="14.9" y="-8.61"/><path d="M208.7 74.16l-2.74 1.58-.33-1.94 2.74-1.6.33 1.95z"/><use xlink:href="#U"/><path d="M192.6 88.33l-6.54 3.78-.33-1.94 6.54-3.78.33 1.94zm6.13-3.53l-4.42 2.55-.33-1.94 4.42-2.56.33 1.95z"/><use xlink:href="#V"/><use xlink:href="#T" x="26.13" y="-10.22"/><path d="M219.94 72.55l-2.75 1.58-.32-1.95 2.74-1.58.33 1.95z"/><use xlink:href="#U" x="0.81" y="4.42"/><path d="M193.4 92.75l-6.54 3.78-.33-1.94 6.54-3.78.33 1.94z"/><use xlink:href="#V" x="-5.56" y="8.1"/><use xlink:href="#V" x="0.76" y="4.46"/><path d="M224.53 74.8l-16.3 9.42-.33-1.94 16.3-9.43.33 1.95zm5.75-3.33l-4.04 2.34-.33-1.95 4.04-2.33.33 1.94z"/><use xlink:href="#U" x="57.25" y="-28.15"/><path d="M249.84 60.2l-6.54 3.78-.33-1.95 6.54-3.78.33 1.95z"/><use xlink:href="#V" x="50.87" y="-24.46"/><path d="M177.3 109.72l4.04-2.33.33 1.95-4.04 2.33-.33-1.95zm2.62-4.3l-3.05 1.77-.33-1.95 3.05-1.77.33 1.95zm5.75-3.33l-4.04 2.33-.32-1.95 4.03-2.33.33 1.95zm8.2-4.74l-6.5 3.76-.33-1.95 6.5-3.76.32 1.95zm-10.84 9.04l3.06-1.76.33 1.94-3.06 1.77-.33-1.95zm.38 4.57l4.04-2.33.33 1.94-4.04 2.34-.33-1.95zm5.75-3.32l3.06-1.77.33 1.95-3.06 1.76-.33-1.94zm-5.05 7.8l2.74-1.58.33 1.94-2.74 1.6-.33-1.95zm4.46-2.57l8.66-5 .32 1.95-8.65 5-.33-1.94zm2.67 3.36l2.74-1.6.33 1.95-2.74 1.6-.33-1.95z"/><use xlink:href="#W"/><path d="M199.95 111.2l3.06-1.77.33 1.95-3.06 1.77-.33-1.95zm4.35-2.5l7.32-4.23.33 1.94-7.32 4.23-.33-1.94zm8.64-4.98l4.35-2.52.33 1.94-4.36 2.52-.32-1.94zM192.05 121l2.74-1.58.33 1.94-2.74 1.6-.33-1.95zm4.45-2.56l8.66-5 .33 1.95-8.66 5-.33-1.95zm-3.7 7l4.04-2.33.32 1.94-4.03 2.33-.33-1.94zm5.75-3.34l3.05-1.76.33 1.95-3.05 1.76-.33-1.95z"/><use xlink:href="#W" x="-2.02" y="16.15"/><path d="M197.95 127.34l8.66-5 .33 1.94-8.66 5-.33-1.95zM188 138l2.74-1.6.33 1.95-2.74 1.6L188 138zm4.26-2.47l2.75-1.6.33 1.95-2.75 1.58-.33-1.94zm4.46-2.58l8.76-5.06.33 1.95-8.76 5.06-.33-1.95zm10.63-5.8l6.5-3.76.33 1.94-6.5 3.76-.33-1.94zm-18.6 15.28l6.5-3.75.33 1.94-6.5 3.76-.33-1.95zm8.22-4.74l4.03-2.33.33 1.94-4.04 2.33-.32-1.94zm5.74-3.33l3.06-1.76.33 1.95-3.06 1.76-.33-1.95zm-8.23 9.63l4.4-2.55.33 1.94-4.42 2.56-.32-1.95zm-10.37 5.98l8.66-5 .33 1.95-8.66 5-.33-1.95zm6.67 1.06l-5.92 3.42.33 1.94 5.92-3.42-.33-1.94zm2.33-1.34l2.75-1.6.33 1.95-2.75 1.58-.33-1.94z"/><use xlink:href="#W" x="1.86" y="33.45"/><path d="M201.83 144.64l8.77-5.07.33 1.95-8.77 5.07-.33-1.95zm10.47-6.04l9.36-5.4.33 1.95-9.36 5.4-.33-1.94zm11.38-6.58l4.4-2.56.33 1.95-4.42 2.55-.32-1.94zm6.12-3.55l6.54-3.78.32 1.95-6.53 3.78-.33-1.95zm8.26-4.77l9.04-5.22.33 1.95-9.04 5.22-.33-1.95zm-52.46 35.18l11.2-6.48.32 1.94-11.2 6.48-.33-1.94zm13-7.52l6.1-3.53.32 1.95-6.1 3.53-.33-1.95z"/><use xlink:href="#W" x="11.02" y="33.03"/><path d="M211 144.2l1.5-.87.33 1.94-1.52.88-.32-1.95zm3.22-1.85l4.42-2.56.33 1.95-4.42 2.55-.33-1.94zm6.45-3.7l4.42-2.55.33 1.94-4.42 2.56-.33-1.95zm6.13-3.55l6.53-3.78.33 1.94-6.54 3.78-.32-1.94zm8.26-4.76l9.04-5.23.33 1.95-9.05 5.22-.32-1.94z"/></g></g><g fill="#42e8e0"><path d="M372.9 136.13l-35.8-20.7 35.8-20.7 35.8 20.7z" opacity=".7"/><path d="M372.9 137.13c-.2 0-.4 0-.5-.1l-35.8-20.7c-.3-.2-.5-.5-.5-.9s.2-.7.5-.9l35.8-20.7a.91.91 0 0 1 1 0l35.8 20.7c.3.2.5.5.5.9s-.2.7-.5.9l-35.8 20.7c-.2 0-.3.1-.5.1zm-33.8-21.7l33.8 19.5 33.8-19.5-33.8-19.5-33.8 19.5z"/></g><g fill="#42e8e0"><use xlink:href="#Q" x="182.49" y="202.34" opacity=".7"/><use xlink:href="#R" x="182.98" y="232.94"/><use xlink:href="#X" opacity=".7"/><use xlink:href="#X" y="-7.88" opacity=".5"/><use xlink:href="#X" y="-15.75" opacity=".3"/><path d="M378.4 268.92a.81.81 0 0 1-.37-.09l-13.63-7.88a.73.73 0 0 1 0-1.27l13.63-7.87a.75.75 0 0 1 .74 0l13.63 7.87a.73.73 0 0 1 0 1.27l-13.63 7.88a.78.78 0 0 1-.37.09zm-12.16-8.6l12.16 7 12.16-7-12.16-7z"/><path d="M80.02 220.14l-13.63-7.87 13.63-7.87 13.64 7.87-13.64 7.87z" opacity=".7"/><path d="M80.03 220.88a.79.79 0 0 1-.37-.1l-13.64-7.87a.76.76 0 0 1-.37-.64.75.75 0 0 1 .37-.64l13.64-7.87a.73.73 0 0 1 .73 0l13.64 7.87a.73.73 0 0 1 .37.64.74.74 0 0 1-.37.64l-13.64 7.87a.78.78 0 0 1-.36.1zm-12.16-8.6l12.16 7 12.15-7-12.16-7z"/></g></g></g><ellipse cx="497.99" cy="153.73" rx="20.66" ry="11.93" fill="#020230" opacity=".6"/><path d="M527.2 156.6h-58.85l5.47 63.72c0 3.54 2.34 7.07 7 9.77 9.35 5.4 24.52 5.4 33.87 0 4.68-2.7 7-6.23 7-9.77z" transform="translate(.49 -90.47)" fill="url(#L)"/><path d="M527.68 66.14h-58.85l.9 10.48a22.92 22.92 0 0 0 5.45 4.91c11.25 7.46 29.8 8.9 42.46 3.53l-1.95 46.6a9.15 9.15 0 0 1-2.11 5.55c-1.9 2.25-5.58 4.9-12.64 6.38a33.16 33.16 0 0 0 14.25-4c4.68-2.7 7-6.23 7-9.77l4.4-51.1z" fill="#24126a"/><g fill="#06033e"><ellipse cx="31.68" cy="-66.75" rx="29.42" ry="16.99" opacity=".4"/><ellipse cx="31.68" cy="-72.74" rx="25.34" ry="14.63" opacity=".4"/></g><g transform="translate(.49 -90.47)"><path d="M528.93 155.8h0a.28.28 0 0 1 0-.09l-.57-5.7v.07c-.25-4.32-3.23-8.6-8.94-11.9-11.94-6.9-31.3-6.9-43.26 0-5.85 3.38-8.83 7.8-8.95 12.2h0l-.54 5.08v.48c-.32 4.84 2.7 9.74 9.1 13.44 12.2 7 31.94 7 44.12 0 6.36-3.78 9.4-8.72 9.03-13.6z" fill="url(#M)"/><ellipse cx="29.99" cy="17.73" rx="25.34" ry="14.63" fill="url(#N)"/></g><path d="M483.34 52c9.9-5.72 25.94-5.72 35.84 0 .13.07.23.15.35.22a19.82 19.82 0 0 0-3.36-2.4c-9.9-5.72-25.94-5.72-35.84 0s-9.84 14.72-.35 20.46c-6.36-5.66-5.25-13.3 3.36-18.28z" fill="#06033e" opacity=".4"/><g transform="translate(.49 -90.47)"><path d="M479.84 142.82c9.9-5.72 26-5.72 35.84 0 4.4 2.53 6.83 5.76 7.33 9.08.62-4.16-1.82-8.44-7.33-11.62-9.9-5.72-25.94-5.72-35.84 0-5.5 3.18-7.94 7.46-7.32 11.6.48-3.3 2.93-6.54 7.32-9.07z" fill="url(#O)"/><path d="M519.58 138.28c-11.93-7-31.37-7.2-43.42-.38s-12.15 18-.22 25.07 31.37 7.2 43.42.38 12.15-18.04.22-25.07zm-3.9 22.72a32.87 32.87 0 0 1-11.52 3.8l-.46-1.5a1.46 1.46 0 0 0-1.39-1h-9.1a1.44 1.44 0 0 0-1.38 1l-.46 1.5a33 33 0 0 1-11.53-3.8c-9.9-5.7-9.9-15 0-20.7s26-5.72 35.84 0 9.9 14.95 0 20.7z" fill="url(#P)"/></g><path d="M500.97 73.62h-5.48a.67.67 0 0 0-.68.68v.1a1.13 1.13 0 0 0 0 .18.68.68 0 0 1 .65-.5h5.44a.67.67 0 0 1 .65.5.58.58 0 0 0 0-.18v-.1a.68.68 0 0 0-.58-.68z" fill="#204984"/><path d="M496.98 126.53a4.89 4.89 0 1 1-9.45-2.51c.7-2.6 3.15-3.35 5.76-2.65s4.38 2.5 3.7 5.16zm3.84-5.2a2.16 2.16 0 1 1-3-3.09c1-1 2.85-1.44 3.7-.58s.3 2.7-.7 3.67zm-5.12-4.1a2.16 2.16 0 1 1-4.22-.72c.24-1.36 1.5-2.83 2.67-2.62s1.8 2 1.55 3.34zm-6.3-.62a2.16 2.16 0 0 1-.286 2.145c-.472.613-1.234.927-2 .825a2.16 2.16 0 0 1-1.714-1.32c-.52-1.28-.26-3.2.84-3.64s2.64.72 3.16 2z" fill="#c0bff6"/></svg>